<svg width="32" height="32" viewBox="0 0 32 32" fill="none" xmlns="http://www.w3.org/2000/svg">
<mask id="path-1-inside-1_7432_38358" fill="white">
<path d="M14.889 26.5443V16.6333L6.22233 11.6223V21.5333L14.889 26.5443ZM17.111 26.5443L25.7777 21.5333V11.6L17.111 16.6333V26.5443ZM14.889 29.1L5.111 23.4666C4.763 23.2666 4.49078 22.9963 4.29433 22.6556C4.09811 22.3148 4 21.9443 4 21.5443V10.4556C4 10.0556 4.09811 9.6852 4.29433 9.34431C4.49078 9.00364 4.763 8.73331 5.111 8.53331L14.889 2.89998C15.237 2.69998 15.6073 2.59998 16 2.59998C16.3927 2.59998 16.763 2.69998 17.111 2.89998L26.889 8.53331C27.237 8.73331 27.5092 9.00364 27.7057 9.34431C27.9019 9.6852 28 10.0556 28 10.4556V21.5443C28 21.9443 27.9019 22.3148 27.7057 22.6556C27.5092 22.9963 27.237 23.2666 26.889 23.4666L17.111 29.1C16.763 29.3 16.3927 29.4 16 29.4C15.6073 29.4 15.237 29.3 14.889 29.1ZM21.4223 11.5666L24.5443 9.76664L16 4.82231L12.8667 6.63331L21.4223 11.5666ZM16 14.7333L19.1777 12.8776L10.611 7.93331L7.43333 9.76664L16 14.7333Z"/>
</mask>
<path d="M14.889 26.5443V16.6333L6.22233 11.6223V21.5333L14.889 26.5443ZM17.111 26.5443L25.7777 21.5333V11.6L17.111 16.6333V26.5443ZM14.889 29.1L5.111 23.4666C4.763 23.2666 4.49078 22.9963 4.29433 22.6556C4.09811 22.3148 4 21.9443 4 21.5443V10.4556C4 10.0556 4.09811 9.6852 4.29433 9.34431C4.49078 9.00364 4.763 8.73331 5.111 8.53331L14.889 2.89998C15.237 2.69998 15.6073 2.59998 16 2.59998C16.3927 2.59998 16.763 2.69998 17.111 2.89998L26.889 8.53331C27.237 8.73331 27.5092 9.00364 27.7057 9.34431C27.9019 9.6852 28 10.0556 28 10.4556V21.5443C28 21.9443 27.9019 22.3148 27.7057 22.6556C27.5092 22.9963 27.237 23.2666 26.889 23.4666L17.111 29.1C16.763 29.3 16.3927 29.4 16 29.4C15.6073 29.4 15.237 29.3 14.889 29.1ZM21.4223 11.5666L24.5443 9.76664L16 4.82231L12.8667 6.63331L21.4223 11.5666ZM16 14.7333L19.1777 12.8776L10.611 7.93331L7.43333 9.76664L16 14.7333Z" fill="#1A6DDF"/>
<path d="M14.889 26.5443L13.6376 28.7086L17.389 30.8776V26.5443H14.889ZM14.889 16.6333H17.389V15.191L16.1404 14.469L14.889 16.6333ZM6.22233 11.6223L7.4737 9.45803L3.72233 7.28902V11.6223H6.22233ZM6.22233 21.5333H3.72233V22.9756L4.97097 23.6976L6.22233 21.5333ZM17.111 26.5443H14.611V30.8776L18.3624 28.7086L17.111 26.5443ZM25.7777 21.5333L27.029 23.6976L28.2777 22.9756V21.5333H25.7777ZM25.7777 11.6H28.2777V7.25702L24.5221 9.43812L25.7777 11.6ZM17.111 16.6333L15.8555 14.4715L14.611 15.1942V16.6333H17.111ZM14.889 29.1L13.641 31.2662L13.6433 31.2675L14.889 29.1ZM5.111 23.4666L6.35901 21.3004L6.35671 21.2991L5.111 23.4666ZM4.29433 22.6556L2.12765 23.9028L2.12861 23.9045L4.29433 22.6556ZM4.29433 9.34431L2.12861 8.09545L2.12765 8.09712L4.29433 9.34431ZM5.111 8.53331L6.35671 10.7008L6.35901 10.6995L5.111 8.53331ZM14.889 2.89998L13.6433 0.732439L13.641 0.733762L14.889 2.89998ZM17.111 2.89998L18.359 0.733761L18.3567 0.732441L17.111 2.89998ZM26.889 8.53331L25.641 10.6995L25.6433 10.7008L26.889 8.53331ZM27.7057 9.34431L29.8724 8.09712L29.8714 8.09545L27.7057 9.34431ZM27.7057 22.6556L29.8714 23.9045L29.8724 23.9028L27.7057 22.6556ZM26.889 23.4666L25.6433 21.2991L25.641 21.3004L26.889 23.4666ZM17.111 29.1L18.3567 31.2675L18.359 31.2662L17.111 29.1ZM21.4223 11.5666L20.1735 13.7324L21.4223 14.4524L22.671 13.7325L21.4223 11.5666ZM24.5443 9.76664L25.793 11.9325L29.5426 9.77061L25.7965 7.60281L24.5443 9.76664ZM16 4.82231L17.2521 2.65848L16.0007 1.93434L14.749 2.65783L16 4.82231ZM12.8667 6.63331L11.6156 4.46883L7.86632 6.63586L11.6179 8.79906L12.8667 6.63331ZM16 14.7333L14.7461 16.8961L16.0045 17.6257L17.2607 16.8922L16 14.7333ZM19.1777 12.8776L20.4384 15.0365L24.1569 12.865L20.4274 10.7124L19.1777 12.8776ZM10.611 7.93331L11.8607 5.76807L10.6112 5.04693L9.36166 5.76786L10.611 7.93331ZM7.43333 9.76664L6.18399 7.6012L2.43984 9.76136L6.17942 11.9294L7.43333 9.76664ZM14.889 26.5443H17.389V16.6333H14.889H12.389V26.5443H14.889ZM14.889 16.6333L16.1404 14.469L7.4737 9.45803L6.22233 11.6223L4.97097 13.7866L13.6376 18.7976L14.889 16.6333ZM6.22233 11.6223H3.72233V21.5333H6.22233H8.72233V11.6223H6.22233ZM6.22233 21.5333L4.97097 23.6976L13.6376 28.7086L14.889 26.5443L16.1404 24.38L7.4737 19.369L6.22233 21.5333ZM17.111 26.5443L18.3624 28.7086L27.029 23.6976L25.7777 21.5333L24.5263 19.369L15.8596 24.38L17.111 26.5443ZM25.7777 21.5333H28.2777V11.6H25.7777H23.2777V21.5333H25.7777ZM25.7777 11.6L24.5221 9.43812L15.8555 14.4715L17.111 16.6333L18.3665 18.7952L27.0332 13.7618L25.7777 11.6ZM17.111 16.6333H14.611V26.5443H17.111H19.611V16.6333H17.111ZM14.889 29.1L16.137 26.9338L6.35901 21.3004L5.111 23.4666L3.86299 25.6329L13.641 31.2662L14.889 29.1ZM5.111 23.4666L6.35671 21.2991C6.36233 21.3023 6.38244 21.3152 6.40743 21.34C6.43265 21.365 6.45025 21.3898 6.46006 21.4068L4.29433 22.6556L2.12861 23.9045C2.55007 24.6354 3.14326 25.2192 3.86529 25.6342L5.111 23.4666ZM4.29433 22.6556L6.46102 21.4085C6.46966 21.4235 6.48157 21.4493 6.49026 21.4821C6.4989 21.5147 6.5 21.5377 6.5 21.5443H4H1.5C1.5 22.3743 1.7092 23.1759 2.12765 23.9028L4.29433 22.6556ZM4 21.5443H6.5V10.4556H4H1.5V21.5443H4ZM4 10.4556H6.5C6.5 10.4622 6.4989 10.4853 6.49026 10.5179C6.48156 10.5507 6.46965 10.5765 6.46102 10.5915L4.29433 9.34431L2.12765 8.09712C1.7092 8.82408 1.5 9.62568 1.5 10.4556H4ZM4.29433 9.34431L6.46006 10.5932C6.45026 10.6102 6.43265 10.6349 6.40744 10.66C6.38244 10.6848 6.36233 10.6976 6.35671 10.7008L5.111 8.53331L3.86529 6.36577C3.14325 6.78074 2.55006 7.36458 2.12861 8.09545L4.29433 9.34431ZM5.111 8.53331L6.35901 10.6995L16.137 5.06619L14.889 2.89998L13.641 0.733762L3.86299 6.36709L5.111 8.53331ZM14.889 2.89998L16.1347 5.06751C16.1308 5.06977 16.1115 5.07989 16.0795 5.08853C16.0472 5.09726 16.0185 5.09998 16 5.09998V2.59998V0.0999756C15.1601 0.0999756 14.3615 0.319671 13.6433 0.732441L14.889 2.89998ZM16 2.59998V5.09998C15.9815 5.09998 15.9528 5.09726 15.9205 5.08853C15.8885 5.07989 15.8692 5.06977 15.8653 5.06751L17.111 2.89998L18.3567 0.732441C17.6385 0.31967 16.8399 0.0999756 16 0.0999756V2.59998ZM17.111 2.89998L15.863 5.06619L25.641 10.6995L26.889 8.53331L28.137 6.36709L18.359 0.733762L17.111 2.89998ZM26.889 8.53331L25.6433 10.7008C25.6377 10.6976 25.6176 10.6848 25.5926 10.66C25.5674 10.6349 25.5497 10.6102 25.5399 10.5932L27.7057 9.34431L29.8714 8.09545C29.4499 7.36458 28.8567 6.78074 28.1347 6.36577L26.889 8.53331ZM27.7057 9.34431L25.539 10.5915C25.5303 10.5765 25.5184 10.5507 25.5097 10.5179C25.5011 10.4853 25.5 10.4622 25.5 10.4556H28H30.5C30.5 9.62568 30.2908 8.82408 29.8724 8.09712L27.7057 9.34431ZM28 10.4556H25.5V21.5443H28H30.5V10.4556H28ZM28 21.5443H25.5C25.5 21.5377 25.5011 21.5147 25.5097 21.4821C25.5184 21.4493 25.5303 21.4235 25.539 21.4085L27.7057 22.6556L29.8724 23.9028C30.2908 23.1759 30.5 22.3743 30.5 21.5443H28ZM27.7057 22.6556L25.5399 21.4068C25.5497 21.3898 25.5674 21.365 25.5926 21.34C25.6176 21.3152 25.6377 21.3023 25.6433 21.2991L26.889 23.4666L28.1347 25.6342C28.8567 25.2192 29.4499 24.6354 29.8714 23.9045L27.7057 22.6556ZM26.889 23.4666L25.641 21.3004L15.863 26.9338L17.111 29.1L18.359 31.2662L28.137 25.6329L26.889 23.4666ZM17.111 29.1L15.8653 26.9324C15.8692 26.9302 15.8885 26.9201 15.9205 26.9114C15.9528 26.9027 15.9815 26.9 16 26.9V29.4V31.9C16.8399 31.9 17.6385 31.6803 18.3567 31.2675L17.111 29.1ZM16 29.4V26.9C16.0185 26.9 16.0472 26.9027 16.0795 26.9114C16.1115 26.9201 16.1308 26.9302 16.1347 26.9324L14.889 29.1L13.6433 31.2675C14.3615 31.6803 15.1601 31.9 16 31.9V29.4ZM21.4223 11.5666L22.671 13.7325L25.793 11.9325L24.5443 9.76664L23.2956 7.60083L20.1736 9.40083L21.4223 11.5666ZM24.5443 9.76664L25.7965 7.60281L17.2521 2.65848L16 4.82231L14.7479 6.98614L23.2922 11.9305L24.5443 9.76664ZM16 4.82231L14.749 2.65783L11.6156 4.46883L12.8667 6.63331L14.1177 8.79778L17.251 6.98678L16 4.82231ZM12.8667 6.63331L11.6179 8.79906L20.1735 13.7324L21.4223 11.5666L22.6711 9.40089L14.1155 4.46756L12.8667 6.63331ZM16 14.7333L17.2607 16.8922L20.4384 15.0365L19.1777 12.8776L17.917 10.7188L14.7393 12.5745L16 14.7333ZM19.1777 12.8776L20.4274 10.7124L11.8607 5.76807L10.611 7.93331L9.36131 10.0986L17.928 15.0429L19.1777 12.8776ZM10.611 7.93331L9.36166 5.76786L6.18399 7.6012L7.43333 9.76664L8.68267 11.9321L11.8603 10.0988L10.611 7.93331ZM7.43333 9.76664L6.17942 11.9294L14.7461 16.8961L16 14.7333L17.2539 12.5705L8.68725 7.60384L7.43333 9.76664Z" fill="#165CBD" mask="url(#path-1-inside-1_7432_38358)"/>
</svg>
