<svg width="32" height="32" viewBox="0 0 32 32" fill="none" xmlns="http://www.w3.org/2000/svg">
<path d="M20.666 14.6666C21.2216 14.6666 21.6938 14.4722 22.0827 14.0833C22.4716 13.6944 22.666 13.2222 22.666 12.6666C22.666 12.1111 22.4716 11.6388 22.0827 11.25C21.6938 10.8611 21.2216 10.6666 20.666 10.6666C20.1105 10.6666 19.6382 10.8611 19.2493 11.25C18.8605 11.6388 18.666 12.1111 18.666 12.6666C18.666 13.2222 18.8605 13.6944 19.2493 14.0833C19.6382 14.4722 20.1105 14.6666 20.666 14.6666ZM11.3327 14.6666C11.8882 14.6666 12.3605 14.4722 12.7493 14.0833C13.1382 13.6944 13.3327 13.2222 13.3327 12.6666C13.3327 12.1111 13.1382 11.6388 12.7493 11.25C12.3605 10.8611 11.8882 10.6666 11.3327 10.6666C10.7771 10.6666 10.3049 10.8611 9.91602 11.25C9.52713 11.6388 9.33268 12.1111 9.33268 12.6666C9.33268 13.2222 9.52713 13.6944 9.91602 14.0833C10.3049 14.4722 10.7771 14.6666 11.3327 14.6666ZM15.9993 29.3333C14.1549 29.3333 12.4216 28.9833 10.7993 28.2833C9.17713 27.5833 7.76602 26.6333 6.56602 25.4333C5.36602 24.2333 4.41602 22.8222 3.71602 21.2C3.01602 19.5777 2.66602 17.8444 2.66602 16C2.66602 14.1555 3.01602 12.4222 3.71602 10.8C4.41602 9.17774 5.36602 7.76663 6.56602 6.56663C7.76602 5.36663 9.17713 4.41663 10.7993 3.71663C12.4216 3.01663 14.1549 2.66663 15.9993 2.66663C17.8438 2.66663 19.5771 3.01663 21.1993 3.71663C22.8216 4.41663 24.2327 5.36663 25.4327 6.56663C26.6327 7.76663 27.5827 9.17774 28.2827 10.8C28.9827 12.4222 29.3327 14.1555 29.3327 16C29.3327 17.8444 28.9827 19.5777 28.2827 21.2C27.5827 22.8222 26.6327 24.2333 25.4327 25.4333C24.2327 26.6333 22.8216 27.5833 21.1993 28.2833C19.5771 28.9833 17.8438 29.3333 15.9993 29.3333ZM15.9993 26.6666C18.9771 26.6666 21.4993 25.6333 23.566 23.5666C25.6327 21.5 26.666 18.9777 26.666 16C26.666 13.0222 25.6327 10.5 23.566 8.43329C21.4993 6.36663 18.9771 5.33329 15.9993 5.33329C13.0216 5.33329 10.4993 6.36663 8.43268 8.43329C6.36602 10.5 5.33268 13.0222 5.33268 16C5.33268 18.9777 6.36602 21.5 8.43268 23.5666C10.4993 25.6333 13.0216 26.6666 15.9993 26.6666ZM15.9993 18C14.7327 18 13.5438 18.3111 12.4327 18.9333C11.3216 19.5555 10.4327 20.4111 9.76602 21.5C9.63268 21.7666 9.64379 22.0277 9.79935 22.2833C9.9549 22.5388 10.1882 22.6666 10.4993 22.6666H21.466C21.7771 22.6666 22.0105 22.5388 22.166 22.2833C22.3216 22.0277 22.3327 21.7666 22.1993 21.5C21.5327 20.4111 20.6493 19.5555 19.5493 18.9333C18.4493 18.3111 17.266 18 15.9993 18Z" fill="#165CBD"/>
</svg>
