<svg width="32" height="32" viewBox="0 0 32 32" fill="none" xmlns="http://www.w3.org/2000/svg">
<path d="M5.10733 27C4.79133 27 4.52778 26.8936 4.31667 26.6807C4.10556 26.4676 4 26.2037 4 25.889V24.4223C4 24.1075 4.10689 23.8436 4.32067 23.6307C4.53422 23.4176 4.799 23.311 5.115 23.311C5.431 23.311 5.69456 23.4176 5.90567 23.6307C6.11678 23.8436 6.22233 24.1075 6.22233 24.4223V25.889C6.22233 26.2037 6.11544 26.4676 5.90167 26.6807C5.68789 26.8936 5.42311 27 5.10733 27ZM10.5517 27C10.2357 27 9.97211 26.8936 9.761 26.6807C9.54989 26.4676 9.44433 26.2037 9.44433 25.889V18.8667C9.44433 18.5518 9.55122 18.2879 9.765 18.075C9.97878 17.8621 10.2436 17.7557 10.5593 17.7557C10.8753 17.7557 11.1389 17.8621 11.35 18.075C11.5611 18.2879 11.6667 18.5518 11.6667 18.8667V25.889C11.6667 26.2037 11.5598 26.4676 11.346 26.6807C11.1324 26.8936 10.8677 27 10.5517 27ZM15.996 27C15.6802 27 15.4168 26.8936 15.2057 26.6807C14.9946 26.4676 14.889 26.2037 14.889 25.889V21.089C14.889 20.7741 14.9958 20.5102 15.2093 20.2973C15.4231 20.0842 15.688 19.9777 16.004 19.9777C16.3198 19.9777 16.5832 20.0842 16.7943 20.2973C17.0054 20.5102 17.111 20.7741 17.111 21.089V25.889C17.111 26.2037 17.0042 26.4676 16.7907 26.6807C16.5769 26.8936 16.312 27 15.996 27ZM21.4407 27C21.1247 27 20.8611 26.8936 20.65 26.6807C20.4389 26.4676 20.3333 26.2037 20.3333 25.889V18.2C20.3333 17.8851 20.4402 17.6212 20.654 17.4083C20.8676 17.1955 21.1323 17.089 21.4483 17.089C21.7643 17.089 22.0279 17.1955 22.239 17.4083C22.4501 17.6212 22.5557 17.8851 22.5557 18.2V25.889C22.5557 26.2037 22.4488 26.4676 22.235 26.6807C22.0212 26.8936 21.7564 27 21.4407 27ZM26.885 27C26.569 27 26.3054 26.8936 26.0943 26.6807C25.8832 26.4676 25.7777 26.2037 25.7777 25.889V13.7557C25.7777 13.4408 25.8846 13.1769 26.0983 12.964C26.3121 12.7509 26.5769 12.6443 26.8927 12.6443C27.2087 12.6443 27.4722 12.7509 27.6833 12.964C27.8944 13.1769 28 13.4408 28 13.7557V25.889C28 26.2037 27.8931 26.4676 27.6793 26.6807C27.4658 26.8936 27.201 27 26.885 27ZM18.6557 14.5667C18.3668 14.5667 18.0873 14.5097 17.8173 14.3957C17.5476 14.2817 17.301 14.1201 17.0777 13.911L13.3333 10.1667L5.911 17.5667C5.68789 17.7889 5.42289 17.8945 5.116 17.8833C4.80911 17.8722 4.54544 17.7556 4.325 17.5333C4.12322 17.3111 4.02044 17.05 4.01667 16.75C4.01289 16.45 4.11844 16.1926 4.33333 15.9777L11.7667 8.58901C11.99 8.36857 12.2366 8.2079 12.5063 8.10701C12.7761 8.00613 13.0518 7.95568 13.3333 7.95568C13.6149 7.95568 13.8952 8.00613 14.1743 8.10701C14.4534 8.2079 14.6953 8.36857 14.9 8.58901L18.6667 12.3557L26.111 4.91101C26.3332 4.68879 26.5943 4.57957 26.8943 4.58335C27.1943 4.58712 27.4546 4.70012 27.675 4.92235C27.8768 5.14457 27.9796 5.40568 27.9833 5.70568C27.9871 6.00568 27.8816 6.26301 27.6667 6.47768L20.2333 13.911C20.0333 14.1259 19.7926 14.2889 19.511 14.4C19.2297 14.5111 18.9446 14.5667 18.6557 14.5667Z" fill="black"/>
</svg>
